<svg width="362" height="280" viewBox="0 0 362 280" fill="none" xmlns="http://www.w3.org/2000/svg">
<g clip-path="url(#clip0_1_154)">
<path d="M365.201 241.003C360.551 243.805 36.268 336.482 30.585 336.898C26.2452 337.23 20.9548 336.524 18.8263 332.746C24.2407 342.274 24.902 342.066 27.5265 342.647C29.866 342.998 32.2394 343.061 34.5941 342.834C35.844 342.721 37.0861 342.534 38.3139 342.274C44.1002 341.028 358.195 251.609 363.444 248.973C373.943 243.556 371.979 242.746 371.607 232.057C371.752 235.918 368.487 239.01 365.201 241.003Z" fill="#113B9D"/>
<path d="M299.257 160.364L368.962 226.785C370.317 227.974 371.229 229.592 371.545 231.372C371.752 233.068 371.349 234.783 370.409 236.208C369.22 238.055 367.639 239.614 365.78 240.775C363.347 242.28 360.709 243.42 357.947 244.158L36.764 335.714C34.021 336.539 31.1748 336.965 28.3118 336.981C26.1744 337.01 24.0571 336.564 22.1121 335.673C20.5416 334.96 19.2899 333.688 18.599 332.103C17.9297 330.414 17.8568 328.546 18.3923 326.81L42.819 233.676L299.257 160.364Z" fill="#437CFF"/>
<path d="M299.299 160.509L256.852 10.5235C256.544 9.48977 255.848 8.61698 254.91 8.09004C253.973 7.56311 252.868 7.42344 251.83 7.70062L2.95527 78.7291C1.92532 79.0424 1.05762 79.7467 0.536644 80.6925C0.0156645 81.6383 -0.117513 82.7508 0.165423 83.7937L42.5917 233.78L299.299 160.509Z" fill="#437CFF"/>
<path d="M246.917 22.3908L13.897 88.8835L50.7365 219.124L283.756 152.631L246.917 22.3908Z" fill="url(#paint0_linear_1_154)"/>
<path d="M159.31 209.453L161.315 218.648L140.836 224.481L139.637 215.057L159.31 209.453Z" fill="url(#paint1_linear_1_154)"/>
<path d="M135.648 216.199L136.702 225.768L116.037 231.683L115.768 221.865L135.648 216.199Z" fill="url(#paint2_linear_1_154)"/>
<path d="M111.8 223.007L111.883 232.866L91.1969 238.761L91.9202 228.674L111.8 223.007Z" fill="url(#paint3_linear_1_154)"/>
<path d="M183.365 202.583L186.362 211.591L165.675 217.507L163.485 208.249L183.365 202.583Z" fill="url(#paint4_linear_1_154)"/>
<path d="M207.234 195.775L211.181 204.513L190.495 210.429L187.354 201.441L207.234 195.775Z" fill="url(#paint5_linear_1_154)"/>
<path d="M231.082 188.946L236 197.435L215.314 203.33L211.202 194.633L231.082 188.946Z" fill="url(#paint6_linear_1_154)"/>
<path d="M278.819 175.33L285.659 183.258L240.154 196.252L235.07 187.825L278.819 175.33Z" fill="url(#paint7_linear_1_154)"/>
<path d="M87.9111 229.981L87.0638 239.944L66.6463 245.777L68.2789 235.585L87.9111 229.981Z" fill="url(#paint8_linear_1_154)"/>
<path d="M199.484 209.931L203.328 219.728L181.588 225.934L178.633 215.867L199.484 209.931Z" fill="url(#paint9_linear_1_154)"/>
<path d="M224.51 202.77L229.408 212.276L207.668 218.482L203.659 208.727L224.51 202.77Z" fill="url(#paint10_linear_1_154)"/>
<path d="M249.536 195.629L255.508 204.824L233.768 211.031L228.685 201.586L249.536 195.629Z" fill="url(#paint11_linear_1_154)"/>
<path d="M99.4011 238.491L98.9672 249.513L64.1871 259.435L66.0263 248.019L99.4011 238.491Z" fill="url(#paint12_linear_1_154)"/>
<path d="M149.453 224.211L151.148 234.61L129.407 240.816L128.581 230.168L149.453 224.211Z" fill="url(#paint13_linear_1_154)"/>
<path d="M124.427 231.351L125.068 242.061L103.307 248.268L103.555 237.308L124.427 231.351Z" fill="url(#paint14_linear_1_154)"/>
<path d="M287.085 184.919L294.649 193.657L259.848 203.579L253.711 194.446L287.085 184.919Z" fill="url(#paint15_linear_1_154)"/>
<path d="M181.981 228.092L185.184 239.114L162.514 245.59L160.282 234.299L181.981 228.092Z" fill="url(#paint16_linear_1_154)"/>
<path d="M218.269 252.398L229.16 271.722L152.677 293.558L149.494 272.034L218.269 252.398Z" fill="url(#paint17_linear_1_154)"/>
<path d="M208.515 220.537L212.938 231.33L190.04 237.869L186.589 226.785L208.515 220.537Z" fill="url(#paint18_linear_1_154)"/>
<path d="M234.822 213.023L240.443 223.484L217.525 230.023L212.896 219.271L234.822 213.023Z" fill="url(#paint19_linear_1_154)"/>
<path d="M103.266 250.572L102.976 262.714L61.7486 274.483L63.7945 261.842L103.266 250.572Z" fill="url(#paint20_linear_1_154)"/>
<path d="M129.573 243.058L130.482 254.868L107.564 261.406L107.647 249.326L129.573 243.058Z" fill="url(#paint21_linear_1_154)"/>
<path d="M296.22 195.484L304.589 205.177L245.01 222.177L239.203 211.778L296.22 195.484Z" fill="url(#paint22_linear_1_154)"/>
<path d="M155.88 235.544L157.967 247.022L135.049 253.561L133.954 241.812L155.88 235.544Z" fill="url(#paint23_linear_1_154)"/>
<path d="M306.346 207.211L315.666 218.005L291.466 224.917L283.242 213.812L306.346 207.211Z" fill="url(#paint24_linear_1_154)"/>
<path d="M278.613 215.12L286.61 226.287L262.411 233.198L255.488 221.72L278.613 215.12Z" fill="url(#paint25_linear_1_154)"/>
<path d="M250.859 223.049L257.575 234.589L121.989 273.279L121.431 259.995L250.859 223.049Z" fill="url(#paint26_linear_1_154)"/>
<path d="M174.252 217.133L176.979 227.117L155.467 233.261L153.607 223.007L174.252 217.133Z" fill="url(#paint27_linear_1_154)"/>
<path d="M116.802 261.323L117.153 274.67L92.9328 281.582L93.6768 267.903L116.802 261.323Z" fill="url(#paint28_linear_1_154)"/>
<path d="M89.0477 269.232L88.0971 282.952L59.0414 291.254L61.3146 277.161L89.0477 269.232Z" fill="url(#paint29_linear_1_154)"/>
<path d="M187.794 0.0741751L85.9734 10.9862C78.4725 11.7901 73.0417 18.5396 73.8433 26.0616L81.1437 94.5659C81.9453 102.088 88.6759 107.534 96.1768 106.73L197.997 95.8182C205.498 95.0143 210.929 88.2648 210.127 80.7428L202.827 12.2385C202.025 4.71645 195.295 -0.729698 187.794 0.0741751Z" fill="#437CFF"/>
<g style="mix-blend-mode:screen">
<path d="M138.311 31.0251L137.394 21.7692L88.1291 26.6743L89.0455 35.9301L138.311 31.0251Z" fill="#437CFF"/>
<path d="M170.409 41.0587L169.494 31.8027L89.439 39.7592L90.3537 49.0152L170.409 41.0587Z" fill="#437CFF"/>
<path d="M156.624 55.6489L155.708 46.3931L90.7451 52.861L91.6615 62.1168L156.624 55.6489Z" fill="#437CFF"/>
<path d="M184.336 66.1164L183.421 56.8604L92.0139 65.9451L92.9287 75.2011L184.336 66.1164Z" fill="#437CFF"/>
<path d="M195.338 78.2371L194.423 68.9811L93.3311 79.0283L94.2459 88.2843L195.338 78.2371Z" fill="#437CFF"/>
</g>
<path d="M62.5459 130.792L61.8964 170.911C61.8482 173.892 64.2185 176.347 67.1907 176.396L94.4204 176.839C97.3926 176.887 99.8412 174.51 99.8894 171.53L100.539 131.41C100.587 128.43 98.2168 125.974 95.2446 125.926L68.0149 125.483C65.0427 125.434 62.5941 127.811 62.5459 130.792Z" fill="#437CFF"/>
<g style="mix-blend-mode:screen">
<path d="M83.8923 162.519C82.5246 162.492 81.2229 161.924 80.2716 160.938C79.3203 159.952 78.7965 158.629 78.8146 157.257L78.9839 146.276H82.369L82.1998 157.257C82.1998 157.707 82.3781 158.139 82.6955 158.457C83.0129 158.776 83.4434 158.955 83.8923 158.955C84.3412 158.955 84.7717 158.776 85.0891 158.457C85.4066 158.139 85.5849 157.707 85.5849 157.257L85.788 143.899C85.8059 142.684 85.3417 141.511 84.4974 140.639C84.0793 140.207 83.5805 139.862 83.0294 139.623C82.4784 139.385 81.8859 139.258 81.2858 139.249C80.0738 139.231 78.9042 139.696 78.0345 140.543C77.1648 141.39 76.6661 142.548 76.6482 143.763L76.5127 152.148H73.1276L73.263 143.662C73.2808 142.605 73.5059 141.562 73.9255 140.593C74.3452 139.624 74.951 138.747 75.7086 138.013C76.4661 137.278 77.3605 136.7 78.3407 136.313C79.3209 135.925 80.3676 135.734 81.4212 135.752C82.4747 135.77 83.5145 135.996 84.481 136.416C85.4476 136.837 86.322 137.445 87.0545 138.205C87.7869 138.964 88.3629 139.861 88.7496 140.844C89.1364 141.827 89.3263 142.877 89.3085 143.933L89.1054 157.291C89.1099 157.979 88.9781 158.661 88.7177 159.297C88.4574 159.933 88.0735 160.511 87.5886 160.998C87.1036 161.484 86.5271 161.869 85.8926 162.13C85.2581 162.391 84.5782 162.523 83.8923 162.519Z" fill="#437CFF"/>
</g>
<path d="M192.001 106.125L142.61 124.28C137.756 126.064 135.264 131.455 137.043 136.323L148.635 168.036C150.414 172.903 155.791 175.403 160.644 173.619L210.035 155.464C214.889 153.68 217.381 148.288 215.602 143.421L204.011 111.707C202.232 106.84 196.855 104.341 192.001 106.125Z" fill="#437CFF"/>
<path d="M169.668 153.073L153.081 154.179L150.963 149.734L162.276 137.552L164.444 142.104L156.728 149.699L167.488 148.494L169.668 153.073Z" fill="url(#paint30_linear_1_154)"/>
<path d="M172.961 157.449L172.353 127.299L176.797 125.177L177.407 155.332L172.961 157.449Z" fill="url(#paint31_linear_1_154)"/>
<path d="M187.665 144.502L185.484 139.923L193.201 132.329L182.441 133.533L180.274 128.982L196.861 127.875L198.978 132.321L187.665 144.502Z" fill="url(#paint32_linear_1_154)"/>
<path d="M170.991 151.764L154.406 152.87L152.289 148.424L163.603 136.243L165.771 140.797L158.053 148.389L168.813 147.184L170.991 151.764Z" fill="#74BCFF"/>
<path d="M171.352 151.973L154.265 153.112L152.017 148.38L163.67 135.832L166.056 140.843L158.695 148.084L168.953 146.936L171.352 151.973ZM154.549 152.627L170.638 151.554L168.674 147.431L157.41 148.692L165.487 140.743L163.539 136.651L152.567 148.467L154.549 152.627Z" fill="url(#paint33_linear_1_154)"/>
<path d="M174.286 156.14L173.674 125.99L178.121 123.873L178.732 154.022L174.286 156.14Z" fill="#74BCFF"/>
<path d="M174.062 156.505L173.443 125.844L178.351 123.513L178.968 154.168L174.062 156.505ZM173.914 126.135L174.511 155.772L178.496 153.875L177.9 124.238L173.914 126.135Z" fill="url(#paint34_linear_1_154)"/>
<path d="M188.991 143.193L186.81 138.613L194.526 131.02L183.765 132.22L181.598 127.668L198.187 126.569L200.305 131.016L188.991 143.193Z" fill="#74BCFF"/>
<path d="M188.928 143.601L186.53 138.569L193.889 131.324L183.63 132.478L181.243 127.468L198.33 126.328L200.583 131.059L188.928 143.601ZM187.091 138.664L189.054 142.784L200.026 130.969L198.045 126.807L181.956 127.881L183.904 131.973L195.168 130.712L187.091 138.664Z" fill="url(#paint35_linear_1_154)"/>
</g>
<defs>
<linearGradient id="paint0_linear_1_154" x1="13.9197" y1="120.736" x2="283.791" y2="120.736" gradientUnits="userSpaceOnUse">
<stop stop-color="#2B59C3"/>
<stop offset="0.3" stop-color="#2B59C3"/>
<stop offset="0.52" stop-color="#2B57BD"/>
<stop offset="0.71" stop-color="#254CA5"/>
<stop offset="0.89" stop-color="#14398F"/>
<stop offset="1" stop-color="#002F9B"/>
</linearGradient>
<linearGradient id="paint1_linear_1_154" x1="138.863" y1="212.855" x2="162.728" y2="218.297" gradientUnits="userSpaceOnUse">
<stop stop-color="#2B59C3"/>
<stop offset="0.3" stop-color="#2B59C3"/>
<stop offset="0.52" stop-color="#2B57BD"/>
<stop offset="0.71" stop-color="#254CA5"/>
<stop offset="0.89" stop-color="#14398F"/>
<stop offset="1" stop-color="#002F9B"/>
</linearGradient>
<linearGradient id="paint2_linear_1_154" x1="115.021" y1="219.704" x2="138.207" y2="224.66" gradientUnits="userSpaceOnUse">
<stop stop-color="#2B59C3"/>
<stop offset="0.3" stop-color="#2B59C3"/>
<stop offset="0.52" stop-color="#2B57BD"/>
<stop offset="0.71" stop-color="#254CA5"/>
<stop offset="0.89" stop-color="#14398F"/>
<stop offset="1" stop-color="#002F9B"/>
</linearGradient>
<linearGradient id="paint3_linear_1_154" x1="90.4587" y1="226.573" x2="113.427" y2="231.341" gradientUnits="userSpaceOnUse">
<stop stop-color="#2B59C3"/>
<stop offset="0.3" stop-color="#2B59C3"/>
<stop offset="0.52" stop-color="#2B57BD"/>
<stop offset="0.71" stop-color="#254CA5"/>
<stop offset="0.89" stop-color="#14398F"/>
<stop offset="1" stop-color="#002F9B"/>
</linearGradient>
<linearGradient id="paint4_linear_1_154" x1="162.669" y1="205.961" x2="187.693" y2="212.025" gradientUnits="userSpaceOnUse">
<stop stop-color="#2B59C3"/>
<stop offset="0.3" stop-color="#2B59C3"/>
<stop offset="0.52" stop-color="#2B57BD"/>
<stop offset="0.71" stop-color="#254CA5"/>
<stop offset="0.89" stop-color="#14398F"/>
<stop offset="1" stop-color="#002F9B"/>
</linearGradient>
<linearGradient id="paint5_linear_1_154" x1="186.503" y1="199.092" x2="212.388" y2="205.746" gradientUnits="userSpaceOnUse">
<stop stop-color="#2B59C3"/>
<stop offset="0.3" stop-color="#2B59C3"/>
<stop offset="0.52" stop-color="#2B57BD"/>
<stop offset="0.71" stop-color="#254CA5"/>
<stop offset="0.89" stop-color="#14398F"/>
<stop offset="1" stop-color="#002F9B"/>
</linearGradient>
<linearGradient id="paint6_linear_1_154" x1="210.317" y1="192.202" x2="237.051" y2="199.488" gradientUnits="userSpaceOnUse">
<stop stop-color="#2B59C3"/>
<stop offset="0.3" stop-color="#2B59C3"/>
<stop offset="0.52" stop-color="#2B57BD"/>
<stop offset="0.71" stop-color="#254CA5"/>
<stop offset="0.89" stop-color="#14398F"/>
<stop offset="1" stop-color="#002F9B"/>
</linearGradient>
<linearGradient id="paint7_linear_1_154" x1="233.265" y1="180.065" x2="284.385" y2="199.607" gradientUnits="userSpaceOnUse">
<stop stop-color="#2B59C3"/>
<stop offset="0.3" stop-color="#2B59C3"/>
<stop offset="0.52" stop-color="#2B57BD"/>
<stop offset="0.71" stop-color="#254CA5"/>
<stop offset="0.89" stop-color="#14398F"/>
<stop offset="1" stop-color="#002F9B"/>
</linearGradient>
<linearGradient id="paint8_linear_1_154" x1="65.8874" y1="233.557" x2="89.4479" y2="238.571" gradientUnits="userSpaceOnUse">
<stop stop-color="#2B59C3"/>
<stop offset="0.3" stop-color="#2B59C3"/>
<stop offset="0.52" stop-color="#2B57BD"/>
<stop offset="0.71" stop-color="#254CA5"/>
<stop offset="0.89" stop-color="#14398F"/>
<stop offset="1" stop-color="#002F9B"/>
</linearGradient>
<linearGradient id="paint9_linear_1_154" x1="177.751" y1="213.553" x2="204.746" y2="220.139" gradientUnits="userSpaceOnUse">
<stop stop-color="#2B59C3"/>
<stop offset="0.3" stop-color="#2B59C3"/>
<stop offset="0.52" stop-color="#2B57BD"/>
<stop offset="0.71" stop-color="#254CA5"/>
<stop offset="0.89" stop-color="#14398F"/>
<stop offset="1" stop-color="#002F9B"/>
</linearGradient>
<linearGradient id="paint10_linear_1_154" x1="202.74" y1="206.326" x2="230.685" y2="213.566" gradientUnits="userSpaceOnUse">
<stop stop-color="#2B59C3"/>
<stop offset="0.3" stop-color="#2B59C3"/>
<stop offset="0.52" stop-color="#2B57BD"/>
<stop offset="0.71" stop-color="#254CA5"/>
<stop offset="0.89" stop-color="#14398F"/>
<stop offset="1" stop-color="#002F9B"/>
</linearGradient>
<linearGradient id="paint11_linear_1_154" x1="227.727" y1="199.115" x2="256.604" y2="207.067" gradientUnits="userSpaceOnUse">
<stop stop-color="#2B59C3"/>
<stop offset="0.3" stop-color="#2B59C3"/>
<stop offset="0.52" stop-color="#2B57BD"/>
<stop offset="0.71" stop-color="#254CA5"/>
<stop offset="0.89" stop-color="#14398F"/>
<stop offset="1" stop-color="#002F9B"/>
</linearGradient>
<linearGradient id="paint12_linear_1_154" x1="62.9304" y1="243.232" x2="101.022" y2="253.357" gradientUnits="userSpaceOnUse">
<stop stop-color="#2B59C3"/>
<stop offset="0.3" stop-color="#2B59C3"/>
<stop offset="0.52" stop-color="#2B57BD"/>
<stop offset="0.71" stop-color="#254CA5"/>
<stop offset="0.89" stop-color="#14398F"/>
<stop offset="1" stop-color="#002F9B"/>
</linearGradient>
<linearGradient id="paint13_linear_1_154" x1="127.776" y1="227.97" x2="152.758" y2="233.337" gradientUnits="userSpaceOnUse">
<stop stop-color="#2B59C3"/>
<stop offset="0.3" stop-color="#2B59C3"/>
<stop offset="0.52" stop-color="#2B57BD"/>
<stop offset="0.71" stop-color="#254CA5"/>
<stop offset="0.89" stop-color="#14398F"/>
<stop offset="1" stop-color="#002F9B"/>
</linearGradient>
<linearGradient id="paint14_linear_1_154" x1="102.53" y1="235.18" x2="126.732" y2="240.102" gradientUnits="userSpaceOnUse">
<stop stop-color="#2B59C3"/>
<stop offset="0.3" stop-color="#2B59C3"/>
<stop offset="0.52" stop-color="#2B57BD"/>
<stop offset="0.71" stop-color="#254CA5"/>
<stop offset="0.89" stop-color="#14398F"/>
<stop offset="1" stop-color="#002F9B"/>
</linearGradient>
<linearGradient id="paint15_linear_1_154" x1="252.25" y1="189.143" x2="294.571" y2="203.822" gradientUnits="userSpaceOnUse">
<stop stop-color="#2B59C3"/>
<stop offset="0.3" stop-color="#2B59C3"/>
<stop offset="0.52" stop-color="#2B57BD"/>
<stop offset="0.71" stop-color="#254CA5"/>
<stop offset="0.89" stop-color="#14398F"/>
<stop offset="1" stop-color="#002F9B"/>
</linearGradient>
<linearGradient id="paint16_linear_1_154" x1="159.393" y1="232.053" x2="186.844" y2="238.229" gradientUnits="userSpaceOnUse">
<stop stop-color="#2B59C3"/>
<stop offset="0.3" stop-color="#2B59C3"/>
<stop offset="0.52" stop-color="#2B57BD"/>
<stop offset="0.71" stop-color="#254CA5"/>
<stop offset="0.89" stop-color="#14398F"/>
<stop offset="1" stop-color="#002F9B"/>
</linearGradient>
<linearGradient id="paint17_linear_1_154" x1="146.651" y1="261.715" x2="231.016" y2="287.53" gradientUnits="userSpaceOnUse">
<stop stop-color="#2B59C3"/>
<stop offset="0.3" stop-color="#2B59C3"/>
<stop offset="0.52" stop-color="#2B57BD"/>
<stop offset="0.71" stop-color="#254CA5"/>
<stop offset="0.89" stop-color="#14398F"/>
<stop offset="1" stop-color="#002F9B"/>
</linearGradient>
<linearGradient id="paint18_linear_1_154" x1="185.649" y1="224.46" x2="214.498" y2="231.394" gradientUnits="userSpaceOnUse">
<stop stop-color="#2B59C3"/>
<stop offset="0.3" stop-color="#2B59C3"/>
<stop offset="0.52" stop-color="#2B57BD"/>
<stop offset="0.71" stop-color="#254CA5"/>
<stop offset="0.89" stop-color="#14398F"/>
<stop offset="1" stop-color="#002F9B"/>
</linearGradient>
<linearGradient id="paint19_linear_1_154" x1="211.913" y1="216.871" x2="241.852" y2="224.541" gradientUnits="userSpaceOnUse">
<stop stop-color="#2B59C3"/>
<stop offset="0.3" stop-color="#2B59C3"/>
<stop offset="0.52" stop-color="#2B57BD"/>
<stop offset="0.71" stop-color="#254CA5"/>
<stop offset="0.89" stop-color="#14398F"/>
<stop offset="1" stop-color="#002F9B"/>
</linearGradient>
<linearGradient id="paint20_linear_1_154" x1="60.2669" y1="255.984" x2="104.981" y2="268.258" gradientUnits="userSpaceOnUse">
<stop stop-color="#2B59C3"/>
<stop offset="0.3" stop-color="#2B59C3"/>
<stop offset="0.52" stop-color="#2B57BD"/>
<stop offset="0.71" stop-color="#254CA5"/>
<stop offset="0.89" stop-color="#14398F"/>
<stop offset="1" stop-color="#002F9B"/>
</linearGradient>
<linearGradient id="paint21_linear_1_154" x1="106.746" y1="247.211" x2="132.292" y2="252.256" gradientUnits="userSpaceOnUse">
<stop stop-color="#2B59C3"/>
<stop offset="0.3" stop-color="#2B59C3"/>
<stop offset="0.52" stop-color="#2B57BD"/>
<stop offset="0.71" stop-color="#254CA5"/>
<stop offset="0.89" stop-color="#14398F"/>
<stop offset="1" stop-color="#002F9B"/>
</linearGradient>
<linearGradient id="paint22_linear_1_154" x1="236.87" y1="201.526" x2="302.72" y2="227.028" gradientUnits="userSpaceOnUse">
<stop stop-color="#2B59C3"/>
<stop offset="0.3" stop-color="#2B59C3"/>
<stop offset="0.52" stop-color="#2B57BD"/>
<stop offset="0.71" stop-color="#254CA5"/>
<stop offset="0.89" stop-color="#14398F"/>
<stop offset="1" stop-color="#002F9B"/>
</linearGradient>
<linearGradient id="paint23_linear_1_154" x1="133.097" y1="239.622" x2="159.726" y2="245.233" gradientUnits="userSpaceOnUse">
<stop stop-color="#2B59C3"/>
<stop offset="0.3" stop-color="#2B59C3"/>
<stop offset="0.52" stop-color="#2B57BD"/>
<stop offset="0.71" stop-color="#254CA5"/>
<stop offset="0.89" stop-color="#14398F"/>
<stop offset="1" stop-color="#002F9B"/>
</linearGradient>
<linearGradient id="paint24_linear_1_154" x1="282.084" y1="211.219" x2="316.732" y2="221.25" gradientUnits="userSpaceOnUse">
<stop stop-color="#2B59C3"/>
<stop offset="0.3" stop-color="#2B59C3"/>
<stop offset="0.52" stop-color="#2B57BD"/>
<stop offset="0.71" stop-color="#254CA5"/>
<stop offset="0.89" stop-color="#14398F"/>
<stop offset="1" stop-color="#002F9B"/>
</linearGradient>
<linearGradient id="paint25_linear_1_154" x1="254.377" y1="219.212" x2="287.936" y2="228.345" gradientUnits="userSpaceOnUse">
<stop stop-color="#2B59C3"/>
<stop offset="0.3" stop-color="#2B59C3"/>
<stop offset="0.52" stop-color="#2B57BD"/>
<stop offset="0.71" stop-color="#254CA5"/>
<stop offset="0.89" stop-color="#14398F"/>
<stop offset="1" stop-color="#002F9B"/>
</linearGradient>
<linearGradient id="paint26_linear_1_154" x1="116.572" y1="234.418" x2="249.787" y2="291.501" gradientUnits="userSpaceOnUse">
<stop stop-color="#2B59C3"/>
<stop offset="0.3" stop-color="#2B59C3"/>
<stop offset="0.52" stop-color="#2B57BD"/>
<stop offset="0.71" stop-color="#254CA5"/>
<stop offset="0.89" stop-color="#14398F"/>
<stop offset="1" stop-color="#002F9B"/>
</linearGradient>
<linearGradient id="paint27_linear_1_154" x1="152.773" y1="220.784" x2="178.492" y2="226.676" gradientUnits="userSpaceOnUse">
<stop stop-color="#2B59C3"/>
<stop offset="0.3" stop-color="#2B59C3"/>
<stop offset="0.52" stop-color="#2B57BD"/>
<stop offset="0.71" stop-color="#254CA5"/>
<stop offset="0.89" stop-color="#14398F"/>
<stop offset="1" stop-color="#002F9B"/>
</linearGradient>
<linearGradient id="paint28_linear_1_154" x1="92.0685" y1="265.909" x2="119.151" y2="271.028" gradientUnits="userSpaceOnUse">
<stop stop-color="#2B59C3"/>
<stop offset="0.3" stop-color="#2B59C3"/>
<stop offset="0.52" stop-color="#2B57BD"/>
<stop offset="0.71" stop-color="#254CA5"/>
<stop offset="0.89" stop-color="#14398F"/>
<stop offset="1" stop-color="#002F9B"/>
</linearGradient>
<linearGradient id="paint29_linear_1_154" x1="57.9705" y1="274.216" x2="91.1812" y2="281.37" gradientUnits="userSpaceOnUse">
<stop stop-color="#2B59C3"/>
<stop offset="0.3" stop-color="#2B59C3"/>
<stop offset="0.52" stop-color="#2B57BD"/>
<stop offset="0.71" stop-color="#254CA5"/>
<stop offset="0.89" stop-color="#14398F"/>
<stop offset="1" stop-color="#002F9B"/>
</linearGradient>
<linearGradient id="paint30_linear_1_154" x1="149.071" y1="145.547" x2="168.278" y2="142.914" gradientUnits="userSpaceOnUse">
<stop stop-color="#2B59C3"/>
<stop offset="0.3" stop-color="#2B59C3"/>
<stop offset="0.52" stop-color="#2B57BD"/>
<stop offset="0.71" stop-color="#254CA5"/>
<stop offset="0.89" stop-color="#14398F"/>
<stop offset="1" stop-color="#002F9B"/>
</linearGradient>
<linearGradient id="paint31_linear_1_154" x1="165.869" y1="135.513" x2="180.494" y2="132.183" gradientUnits="userSpaceOnUse">
<stop stop-color="#2B59C3"/>
<stop offset="0.3" stop-color="#2B59C3"/>
<stop offset="0.52" stop-color="#2B57BD"/>
<stop offset="0.71" stop-color="#254CA5"/>
<stop offset="0.89" stop-color="#14398F"/>
<stop offset="1" stop-color="#002F9B"/>
</linearGradient>
<linearGradient id="paint32_linear_1_154" x1="180.804" y1="132.839" x2="200.011" y2="130.206" gradientUnits="userSpaceOnUse">
<stop stop-color="#2B59C3"/>
<stop offset="0.3" stop-color="#2B59C3"/>
<stop offset="0.52" stop-color="#2B57BD"/>
<stop offset="0.71" stop-color="#254CA5"/>
<stop offset="0.89" stop-color="#14398F"/>
<stop offset="1" stop-color="#002F9B"/>
</linearGradient>
<linearGradient id="paint33_linear_1_154" x1="150.077" y1="144.104" x2="169.886" y2="141.363" gradientUnits="userSpaceOnUse">
<stop stop-color="#2B59C3"/>
<stop offset="0.3" stop-color="#2B59C3"/>
<stop offset="0.52" stop-color="#2B57BD"/>
<stop offset="0.71" stop-color="#254CA5"/>
<stop offset="0.89" stop-color="#14398F"/>
<stop offset="1" stop-color="#002F9B"/>
</linearGradient>
<linearGradient id="paint34_linear_1_154" x1="166.823" y1="134.161" x2="182.175" y2="130.699" gradientUnits="userSpaceOnUse">
<stop stop-color="#2B59C3"/>
<stop offset="0.3" stop-color="#2B59C3"/>
<stop offset="0.52" stop-color="#2B57BD"/>
<stop offset="0.71" stop-color="#254CA5"/>
<stop offset="0.89" stop-color="#14398F"/>
<stop offset="1" stop-color="#002F9B"/>
</linearGradient>
<linearGradient id="paint35_linear_1_154" x1="181.799" y1="131.476" x2="201.614" y2="128.736" gradientUnits="userSpaceOnUse">
<stop stop-color="#2B59C3"/>
<stop offset="0.3" stop-color="#2B59C3"/>
<stop offset="0.52" stop-color="#2B57BD"/>
<stop offset="0.71" stop-color="#254CA5"/>
<stop offset="0.89" stop-color="#14398F"/>
<stop offset="1" stop-color="#002F9B"/>
</linearGradient>
<clipPath id="clip0_1_154">
<rect width="372" height="343" fill="white"/>
</clipPath>
</defs>
</svg>
